<?xml version="1.0" encoding="utf-8"?>
<!-- Generator: Adobe Illustrator 19.0.0, SVG Export Plug-In . SVG Version: 6.00 Build 0)  -->
<svg version="1.1" id="图层_2" xmlns="http://www.w3.org/2000/svg" xmlns:xlink="http://www.w3.org/1999/xlink" x="0px" y="0px" width="350px" height="84px"
	 viewBox="-122 378.9 350 84" enable-background="new -122 378.9 350 84" xml:space="preserve">
<g>
	<path fill="#4AB19A" d="M-108.1,410.9h0.5l1,2c-1.2,0-2.5,5.4-3.8,16.3v1.8l6.9,1.3h0.5l1.8-0.5l-0.3-3l0.3-0.8
		c3,1.2,4.6,2.2,4.6,3v1.3l-0.3,0.5l0.3,0.8v0.5c-0.7,3.2-2.8,4.8-6.3,4.8h-0.8c-4.1,0-7.1-1.8-9.1-5.3l-0.5-0.8v-3l3-15.7
		L-108.1,410.9z M-97.7,408.6h0.8c2.2,0,3.3,3,3.3,9.1h0.5c0-1.7,0.8-2.5,2.5-2.5l0.5,0.5v1.3c-1.5,3-2.3,6.5-2.3,10.4l2.5,17.5
		l0.5,0.5h0.3l0.8-2.5l-1.8-7.6c0.7-13,2.7-19.6,6.1-19.6c4.1-2.7,8-4.1,11.9-4.1v0.5l0.3-0.5h7.6c2,0,3.3,1.2,3.8,3.6l-0.3,3v9.6
		l4.6,1.8v1.3l-1.5,1.3h-3l0.3,6.6l-0.3,6.1l0.8,5.3l-0.5,0.8h-1c-1.9,0-2.8-1.4-2.8-4.3l0.5-1.8l-0.5-0.8l0.5-3v-9.4l-2-0.8
		l-0.3,0.8h-8.1l-0.3,0.5l-0.5-0.5h-3.8c-4.1,0-6.8,0.3-8.1,1c0,6.4,1.2,9.6,3.6,9.6l3.6,0.5l1.8-0.5h6.6l0.3-0.5l0.5-1.8h0.3
		l4.3,1.8v1c-0.8,0-1.3,0.7-1.3,2c0,0.8-5.2,1.9-15.5,3l-5.1-2.5l-0.8,2.5l0.3,1.8l-1,1.3h-0.5c-2.7-2.9-4.1-10.3-4.1-22.3h-0.8
		l-2,0.5c0-0.8-0.3-1.3-1-1.3c-0.7-2-1.4-6.4-2-13.2l-0.3-0.8l-3.8-3C-101.9,409.3-99.9,408.6-97.7,408.6z M-87.5,388.5h0.5v1.3
		h-0.8v0.5c3,0,4.6,1,4.6,3l-2.3,3.6l0.3,2l-1.8,1.8c-3.9-1-5.8-2.9-5.8-5.6l3.6-6.1L-87.5,388.5z M-92.4,404.2l0.3,0.5h2
		c2.7,0,4.1,0.7,4.1,2v1l-1.5,2.5c-1.5,0-3.3-1.9-5.3-5.6L-92.4,404.2z M-89.8,393.8v0.8l2.8,1.3l1-0.8l-0.3-1.8h-1.5L-89.8,393.8z
		 M-86.8,426.6v2.5h0.5l1-0.5v0.5c1.4-0.8,3.7-1.3,7.1-1.3h9.4c3,0,4.6-0.4,4.6-1.3l-0.8-11.4c-14.1,0-21.1,1.6-21.1,4.8
		C-86.5,421.7-86.8,423.9-86.8,426.6z M-74.9,388.5l0.8,1.8l-0.8,8.6h1.3c3.7,0,5.6,0.3,5.6,1l0.5-0.5h0.3l0.8,1.3c-1,2-2.8,3-5.3,3
		l-1.8-2.5h-1.3c-0.5,0-0.8,0.8-0.8,2.5l-3,2.3c-0.5,0-1-2-1.5-6.1v-1l2-6.9l-0.5-0.5v-1.3C-78.7,389.3-77.4,388.7-74.9,388.5z
		 M-74.3,432.7l3,6.6l-2,1.3c-1.2-1.9-1.8-4.1-1.8-6.6L-74.3,432.7z M-74.3,418.7c1.2,0,2.5,1.4,3.8,4.3l-2.3,1.3
		c0-0.8-0.5-1.3-1.5-1.3l-0.5-0.5V420l0.5-0.5V418.7z"/>
	<path fill="#4AB19A" d="M-48.2,426.8h0.5c3,0,5.9,3,8.6,8.9l-6.3,8.1c-1.9,0-3-1-3.3-3c2.5-0.7,3.8-2,3.8-4.1
		c-3.6-2.5-5.3-4.7-5.3-6.3C-49.5,428-48.9,426.8-48.2,426.8z"/>
	<path fill="#4AB19A" d="M2.1,389.3h0.5c1,0,2,6.4,3,19.3c0.5,0,0.9,2.5,1.3,7.4H14l1,1l-0.5,0.5c1.2,0,1.8,0.3,1.8,0.8l-5.3,2.5
		l-2.3-0.5l-0.8,0.5v0.5l4.3,9.9h1c2.9-5.9,5.1-9.1,6.6-9.4h1.3l1,1l-6.3,13.7l8.1,14.7l-0.5,0.5v0.5l0.5,1.5h-0.5l-0.5-0.5
		l-0.8,0.5h-0.5c-1.7-0.3-4.2-4-7.6-10.9l-0.8-0.5h-0.5c-3.7,4.4-7.1,7-10.2,7.9c-1.2,0-1.8-0.7-1.8-2l-0.5-0.5h-0.5
		c0-2.5,1.4-4.2,4.1-4.8l5.3-6.9c-4.4-8-6.6-13.7-6.6-17.3c-4.2,1.4-8.4,2.2-12.4,2.5v2l1.3,1l6.6-2.5h1c-4.4,4.2-7.1,6.3-8.1,6.3
		l0.5,5.1l-0.5,0.5v0.3l0.5,2l-0.5,0.5h-1.3c0-1-0.4-1.5-1.3-1.5l-1,1h-0.8c-1-4.2-6.1-6.3-15.2-6.3c-1.5,0-2.7-0.7-3.6-2v-0.5
		l4.1,0.5c8-0.7,11.9-1.8,11.9-3.3v-0.5l-1.3-2l-5.3-0.5l-0.5,0.5h-0.5c-3,0-5.2-2.5-6.6-7.4l0.5-0.5h1.8l1.8,1h1.3
		c4.2,0,6.8-0.5,7.6-1.5l-1-4.3l2.8-1l4.8,5.3l7.1-0.5h5.3v-9.4l-0.8-4.3l0.8-2.5l-0.8-3.8h0.8l-1.3-2.5L2.1,389.3z M-9.1,394.6h0.5
		c1.4,0,3,2.2,4.8,6.6c0,1-1.4,2.1-4.3,3.3c-4.6-0.5-6.9-1.4-6.9-2.5C-13.2,398.8-11.3,396.3-9.1,394.6z M19.9,403.5h1.3
		c3.9,1.9,6,3.2,6.3,4.1v1.8l-1.3,1h-2.3C21.2,408.5,19.9,406.2,19.9,403.5z"/>
	<path fill="#4AB19A" d="M62,411.1l7.1,1v2.3c-0.7,0.7-1,2.6-1,5.8h-0.5l0.5,2.5l3.3-1.3h2c3.7,0.7,5.6,1.9,5.6,3.6l-2.8,3.6
		c-1.9,0-4.6-0.8-8.1-2.3v0.5l0.5,3.6v2.8c0,2-0.6,3.2-1.8,3.6c-2.2,0-3.8-1.8-4.8-5.3l0.5-2.8v-8.4l-0.5-0.5v-0.5
		c-8,3-14.1,4.6-18.5,4.6h-1.3c-3.4,1-7.2-0.4-11.4-4.3V419l6.6,0.3C43.5,419.2,51.7,416.5,62,411.1z M63.8,385.2h2.5
		c5.9,0,8.9,1.9,8.9,5.8l0.5,8.1h-0.5l0.5,0.8c0,3-0.9,5.9-2.8,8.6l-3.8-1l-9.9,1c-5.4,0-10.9-3.9-16.5-11.7l-0.5-6.3v-1.3
		c1.2-1.9,2.3-2.8,3.3-2.8l3.3,1l5.1-1l3.8,0.5L63.8,385.2z M56.4,423.8c2.2,2.2,3.3,4.6,3.3,7.1l-4.8,8.6v1.3
		c11.8,2.7,22.6,4.1,32.2,4.1c0,0.8,0.6,1.3,1.8,1.3l0.5,0.5v0.5c0,1.2-4.2,1.8-12.7,1.8h-1c-2.4,0-9.1-1.9-20.3-5.8
		c-1.4,0-3.1,3.6-5.3,10.7h-3.3c-2.2-1.7-3.3-3.1-3.3-4.3C46.3,438.8,50.7,430.2,56.4,423.8z M54.9,397.4c0,1-1.4,2.6-4.3,4.8
		l5.8,1.3h1.8c2.4,0,4.6-1,6.6-3l0.5,0.5c1.9-0.5,2.8-1.1,2.8-1.8l-0.5-0.5l-0.8,0.5h-0.5l-0.5-0.5h-0.5l-0.5,0.5h-0.5l-6.6-1.8
		H54.9z M54.9,392.8c0,0.8,1.9,1.4,5.6,1.8l3.8-1.8l2.5,0.5v-0.5c0-0.8-0.5-1.3-1.5-1.3L54.9,392.8z"/>
	<path fill="#4AB19A" d="M115.6,387.7h3.3c2.2,0,3.3,2.9,3.3,8.6l-0.8,6.9c-0.7,6.4-1,11.5-1,15.2v4.3c0,2.9,0.4,6.2,1.3,9.9
		c0,2.9-1.3,6.3-3.8,10.2l-1-2.5l-0.5,0.5h-0.5c-0.7,0-1.4-1.4-2-4.3V402v-1.8h-0.3c-5.1,5.8-8.5,10-10.4,12.7l-3,1
		c-0.8-1.9-1.8-3.1-2.8-3.8l-0.5,0.5c-0.5-1.5-1.2-2.3-2-2.3v-1.5l17.3-18.5h0.5l0.5,0.5L115.6,387.7z M137.7,403.2l1.8,0.8l0.5-0.8
		c8.6,0.8,12.9,2,12.9,3.6v1.5l-2,2.3l-1-1l-2,0.5v0.5c1.4,0,2,0.4,2,1.3v6.1c0,1.2,1,3.2,3,6.1c-2.7,4.1-4.1,7-4.1,8.9l0.3,0.5
		c-1,8.8-2.7,14.6-5.1,17.3l-2.3,0.5v-0.5l-3,1.3c-5.9-2.4-9.5-4.8-10.7-7.4l0.5-0.5v-0.5c3,1.9,6.1,3.1,9.1,3.8
		c4.4,0,6.9-3.2,7.6-9.6c0.7-1.4,1-2.8,1-4.3l-0.5-0.5l-7.1,2.5l-1.3,0.3c0.3,0.5-2.8,1.5-9.4,3c-2-2.4-3-5.1-3-8.1
		c0-6.6,3.1-13.1,9.4-19.6l1.3-2.3h-1.3c-6.3,0-9.4-1.3-9.4-3.8l0.5-0.5h0.5l1.5,0.5l3.3-1v0.5C132,403.7,134.3,403.2,137.7,403.2z
		 M136.4,413.4v-0.5c-5.6,5.1-8.4,11.7-8.4,19.8l1.3,0.8h0.5c11.2-1.4,16.8-4.5,16.8-9.4l0.5-0.3c-1.2-7.6-3.3-11.4-6.3-11.4
		L136.4,413.4z M144,409.1v1l3.8,0.8v-1L144,409.1z"/>
	<path fill="#4AB19A" d="M183.9,398.2h0.5c9.6,2,14.5,4.6,14.5,7.6l5.8,4.8v-0.5l-0.5-1.5h0.5l-0.5-0.8v-0.5c1-3.9,1.8-5.8,2.3-5.8
		l2.3,1.5l-0.5,3.8l0.5,28.4l1.3,5.3c-0.5,7.1-2.6,10.7-6.3,10.7l-4.8,0.8c-6.6,0-9.9-0.6-9.9-1.8l-0.5,0.5h-1.8l-1-1v-0.5
		c0-1.5,5.6-3,16.8-4.3c1.7-1.2,2.7-2.9,3-5.1l-0.8-6.3l0.8-11.9l-6.6,5.3l-1.5,0.8l-0.8,0.5c-5.1,1.4-9.6,2-13.5,2l-0.5-0.5l-1,1
		h-4.1l-2.5,0.8c-9.6-1.2-14.5-3.2-14.5-6.1v-1.5c0-3.4,1.8-7.8,5.3-13.2c2-5.4,5.3-9.4,9.9-11.9h0.5v1c-5.1,11.9-7.6,18.8-7.6,20.8
		c3.6,1,6.9,1.5,9.9,1.5h9.9l2.3-0.5l0.8,0.5h0.5c3.6-0.8,5.3-1.5,5.3-2c-2.4-10.2-7.9-15.2-16.5-15.2l-1.8-5.1L183.9,398.2z
		 M167.6,387.2h0.5c1.2,0,1.8,0.8,1.8,2.3h0.5l32-0.8c4.2,1,6.3,2.1,6.3,3.3c-3.4,2.5-10.5,3.8-21.3,3.8v-0.5l-1.8,0.5l-3-0.5
		l-4.1,0.5l-1.8-0.5l-0.5,0.5h-0.5c-5.9,0-8.9-1.1-8.9-3.3l-1-2C166.4,388.3,167,387.2,167.6,387.2z"/>
</g>
</svg>
