<?xml version="1.0" encoding="utf-8"?>
<!-- Generator: Adobe Illustrator 19.0.0, SVG Export Plug-In . SVG Version: 6.00 Build 0)  -->
<svg version="1.1" id="图层_1" xmlns="http://www.w3.org/2000/svg" xmlns:xlink="http://www.w3.org/1999/xlink" x="0px" y="0px" width="284px" height="284px"
	 viewBox="-155 278.9 284 284" enable-background="new -155 278.9 284 284" xml:space="preserve">
<circle id="oval2" fill="#F3F2F1" cx="-14" cy="419.9" r="141"/>
<g>
	<defs>
		<circle id="SVGID_1_" cx="-14" cy="419.9" r="141"/>
	</defs>
	<clipPath id="SVGID_2_">
		<use xlink:href="#SVGID_1_"  overflow="visible"/>
	</clipPath>
	<g clip-path="url(#SVGID_2_)">
		<path d="M-38,515c-6.9,2.8-15,2.8-21,8.1c-1.6,1.2-2.4,3.2-3.6,4.9c-2,3.6-3.6,7.7-5.7,11.3c-5.3,12.1-10.5,24.7-14.6,37.2h6.1
			c0.8-4,2.8-8.5,4.5-12.5c3.2-8.9,6.9-17.4,10.9-25.9c1.6-3.2,3.2-8.1,5.7-10.9c1.6-1.6,4.5-2.8,6.9-3.6c0,3.6,0.8,7.3,1.6,10.9
			c0.4,1.6,0,3.6,1.2,4.9c0.8,1.6,3.2,2.4,4.9,3.2c0.4,0.4,1.6,0.8,1.6,1.6c0,0.8-0.4,1.6-0.8,2c-0.8,1.2-2.4,3.2-2.4,4.9
			c0.4,2,2.4,4,3.2,5.7c2.4,4,5.3,8.5,7.7,12.5l2.4,4c0.4,0.8,0.8,1.6,1.6,2c1.2,0.8,4.5,0.4,6.1,0.4v-5.3h15v5.3h5.3
			c0-2.4,1.6-4.5,2.8-6.5c2.4-4.5,5.3-8.5,8.1-13c1.2-1.6,3.2-4,3.2-6.1c0-0.8-0.4-1.6-1.2-2.4c-0.8-1.6-2-2.8-2.4-4.5
			c2-0.8,5.7-2.8,6.9-4.5c0.8-1.2,0.8-3.2,0.8-4.9c0.8-3.6,0.8-7.7,2-11.7c2.8,1.2,5.7,2,7.7,4c2.8,2.8,4,7.3,5.7,10.9
			c3.6,7.7,6.9,15.4,9.7,23.1c1.6,3.6,2.8,7.7,4.5,11.3c0.4,1.2,0.8,3.6,2,4.5c1.2,0.8,4,0.4,5.7,0.4c-0.4-2.4-1.6-4.9-2.4-6.9
			c-1.6-4-3.2-8.1-4.5-12.1c-2.8-7.7-6.1-15-9.3-22.3c-1.6-4-3.6-9.3-6.9-12.5c-3.2-3.2-7.7-4.5-11.7-5.7c-2-0.4-4-1.2-6.1-1.2
			c1.2-1.6,3.6-2.4,5.3-3.2c4-1.6,8.1-2.8,11.7-4.5c5.3-2,10.9-4,15.8-7.7c6.1-4.9,10.9-12.5,11.7-20.2c5.3,0,9.7,0.4,14.6-2
			c12.1-5.3,18.2-19.4,15-32c-0.8-3.6-2.4-7.3-4.9-10.5c-1.2-1.6-4-3.2-3.6-5.3c0-2.4,0.4-4.9,0.8-7.3c0.4-4.9,0.4-9.7,0.8-14.6
			c0.4-3.2,0.4-6.5,0.4-9.3c0-1.2,0-2.4,0-3.6c0-0.8,0.8-1.6,1.2-2.4c0.4-0.8,0.4-1.6,0.8-2.4c0.8-1.6,2-2.4,2-4.5
			c0-3.2-2.8-4.9-3.2-7.7c-0.4-2.8,0.4-5.7,0.4-8.5c0-3.6-0.8-7.3-1.6-10.5c-0.4-2.8-1.2-5.3-2-8.1c-0.4-1.6-1.2-2.8-1.6-4.5
			c-0.4-1.2,0-2,0-3.2c0-2.4,0-4.5-0.8-6.9c-1.6-6.5-6.5-12.5-12.5-15c-2.4-1.2-5.7-1.6-8.5-2c-0.4-6.1-6.1-12.1-11.7-14.2
			c-3.2-1.2-6.5-1.6-9.7-3.2c-2.4-1.6-4.9-3.2-7.7-4.5c-5.7-2.8-12.1-4.9-18.6-4.9c-3.2,0-6.1,0-9.3,0.8c-1.6,0.4-3.6,1.2-5.3,1.2
			c-2.4,0-4.5-0.4-6.9-0.8c-3.6-0.4-7.7,0-11.3,0c-10.5,0.4-21.5,2.8-31.2,7.7c-3.2,1.6-6.5,3.6-9.7,6.1c-1.6,1.2-2.8,2.4-4.5,3.2
			c-2,1.2-4.5,2.4-6.9,3.6c-4.9,2.8-9.7,6.9-13.4,10.9c-11.3,12.5-16.6,29.6-17.4,45.7c-0.4,7.7,0.4,15,0.8,22.3
			c0,5.3-1.2,10.5-0.8,15.8c0,1.6,0.8,2.8,1.6,3.6c0.8,0.8,1.6,1.2,2,2c0.4,1.6,0.4,3.6,0.4,5.3c0.4,3.2,1.2,6.5,1.2,9.7
			c0,1.6-1.6,2.4-2.8,3.6c-1.6,2-3.2,4-4.5,6.5c-4.5,8.1-4,19,0.4,27.1c3.6,6.5,10.1,11.7,17,13c2,0.4,4.5,0.8,6.5,0.4
			c0.8,0,2.8-0.8,3.6,0c0.4,0.4,0.8,1.2,0.8,2c0.4,1.6,0.8,2.8,1.6,4.5c1.6,4,3.6,8.5,6.9,11.7c7.3,7.3,17.4,9.7,27.1,13
			C-43.3,512.6-40.4,513.8-38,515z"/>
		<path fill="#282828" d="M-102.8,409.3c1.6-0.8,2-2.8,4-3.2c0,2,0,3.6,2,4.5c0-4.5,1.6-8.1,5.7-10.5c1.6,3.6,3.2,6.5,7.7,6.5
			c-0.8-3.2-0.8-5.3,0.4-8.1c0.8,2.4,0.4,6.5,4,6.9c0-4,3.2-6.1,5.7-8.9c1.2-1.2,1.6-2.8,2.8-4.5c1.6-2.4,3.6-4.9,4.9-7.3
			c0,2.4-1.2,4.9-2,6.9c-2,4.9-4.5,9.3-8.1,13.4c-1.6,2-3.6,3.6-4.9,5.3c4.9,0,10.1-1.2,15-2.8c5.7-2,11.3-4,16.6-6.9
			c4-2,8.5-4,11.7-6.9c-1.6,4.5-4,8.9-8.1,11.3c-1.6,0.8-3.6,1.6-5.7,2c2.8,2,6.1-0.4,8.9-1.2c1.2-0.4,2.8-0.4,4-0.4
			c4.5,0,9.3,0.4,13.8-0.4s8.5-2.8,12.5-4.9c3.2-1.6,6.9-2.8,10.1-4.9c3.2-2,5.7-4.5,8.5-6.9c1.6-1.6,3.6-3.6,4.9-5.7
			c0,2.4-2,5.3-3.2,7.3C4.9,396.4-2,403.3-8.9,406.5c0.8,0.4,2,0.4,2.8,0.4c4,0,7.7-2.4,11.3-3.6c3.6-1.2,6.9-0.4,10.5-1.2
			c4-0.8,7.7-3.2,11.7-4c-3.6,3.6-8.5,7.7-13.8,7.7c2.8,1.2,6.9,0.4,9.3-0.4c6.9-2,11.3-8.1,14.2-14.6c0.8-2,2-4.5,2-6.9
			c0.4,1.6,0,3.6-0.4,5.3c-0.8,3.2-2,6.9-2.8,10.1c4-2.4,8.5-6.5,9.7-10.9c1.6,3.2,2.8,6.9,6.5,8.5c-0.8-1.6-1.6-2.8-1.6-4.9
			c2,2.4,3.6,5.3,6.9,6.1c-0.4-1.2-1.6-2.4-1.6-3.6c0-1.2,0.8-2.4,1.2-3.6c0.4-1.2,0.4-2.8,0.4-4c1.2,2.4,2.4,5.3,2.8,7.7
			c2-1.2,2.4-4.5,2.4-6.9c0.8,2,2,4.5,4.5,4.5c0,1.2-0.4,2.4-1.2,3.6c3.2-0.8,5.3-4.5,6.1-7.7c1.6,0.8,2.8,2,4.5,2.4
			c-0.4-1.6-1.2-2.8-1.6-4.5c1.2,0.8,2.4,0.4,4,0.4c-1.2-2-2.4-3.6-3.2-6.1c-0.8-3.6,0.4-7.3,0-10.9c-0.4-4.9-1.6-10.1-2.8-15
			c-0.4-2-1.6-3.6-2.4-5.7c-0.8-3.2,0.4-6.5-0.4-9.7c-1.2-4.5-4-9.3-8.5-11.3c-3.6-2-8.5-2.4-12.5-2.4c-0.8-5.7-2.4-10.9-7.7-13.4
			c-2-0.8-4-1.2-6.1-1.6c-1.6-0.4-3.6-1.2-5.3-2.4c-2-1.2-4-2.4-6.1-3.6c-5.3-2.8-11.3-4.9-17-5.3c-3.2,0-6.9,0-10.1,0.8
			c-1.6,0.4-3.2,1.2-5.3,1.2c-2.4,0-4.5-0.8-6.9-0.8c-11.3-0.4-23.9,0-34.4,4.5c-3.6,1.6-6.9,2.8-10.1,5.3c-2.8,2-5.7,4-8.5,6.1
			c-2.4,1.6-5.3,2.4-7.7,4c-4.5,2.4-8.5,5.7-11.7,9.7c-10.5,11.7-15.8,27.5-16.6,43.3c-0.4,7.3,0.8,14.6,0.8,21.9
			C-101.6,399.2-102.8,404.5-102.8,409.3z"/>
		<path d="M-1.6,301.3v0.8c5.7,0.4,11.3,2,16.6,2c-1.2-1.2-2.8-1.6-4.5-2C6.5,301.3,2.5,301.3-1.6,301.3z"/>
		<path d="M-55.8,311c1.2,0.4,3.2-0.8,4.5-1.2c3.2-1.2,6.9-2.4,10.1-2.8c10.9-2.4,21.5-3.2,32.8-3.2c-1.6-0.8-3.6-0.8-5.3-0.8
			c-2.4-0.4-4.9-0.4-7.7-0.4c-7.3,0-14.2,0.4-21,2.8C-47.3,306.5-51.8,308.6-55.8,311z"/>
		<path fill="#111111" d="M11,303.7c0.4,0,0.8,0.4,1.2,0.4C11.8,303.7,11.4,303.7,11,303.7z"/>
		<path fill="#141414" d="M-24.6,303.7c0.8,0.4,1.2,0.4,2,0.4C-23.4,303.7-23.8,303.7-24.6,303.7z"/>
		<path d="M36.9,311.8c1.2,2,2.8,4,4,6.1c1.2,1.6,2,3.2,3.6,4.5C44.6,317.9,41.7,313,36.9,311.8z"/>
		<path d="M62,330.4c0.8,3.6,3.2,8.5,6.5,10.1C67.2,336.9,65.2,332,62,330.4z"/>
		<path fill="#141414" d="M-102.4,366.8v1.2C-102.4,367.2-102.4,367.2-102.4,366.8z"/>
		<path fill="#A8C1B8" d="M73.3,397.6c-1.6,1.6-4,3.6-6.9,3.6c-1.2,0-2-0.8-3.2-0.4c-1.2,0.4-1.6,1.6-2.8,2
			c-2.4,1.2-4.5,0.4-6.9-0.8l-0.4,0.4c1.2,2.4,2.4,4.9,2.8,7.7c1.6,6.1,1.2,12.1,1.2,18.2c0,2.4,0.4,4.9,0.4,6.9
			c1.2-1.2,2-2.4,3.2-3.2c3.6-2.8,7.7-3.6,11.7-2.4c0-4,0.8-7.7,0.8-11.7c0-3.6,0-7.7-0.4-11.3C73.7,403.3,74.1,400,73.3,397.6z"/>
		<path fill="#5F5244" d="M45.8,398L45.8,398L45.8,398z"/>
		<path fill="#FEDCB7" d="M46.2,398c-2,2-4.9,4.9-7.7,6.1c-1.2,0.4-3.2,0-4.5,0.4c-1.6,0.8-3.2,2.4-5.3,3.6
			c-5.7,3.2-16.2,5.3-20.6-0.8c-5.3,1.6-9.7,4.5-15.4,4.5c-3.2,0-6.5-1.2-7.3-4.5c-4.5,1.6-8.5,3.2-13.4,3.6c-2.4,0-4.9,0-7.3,0
			c-1.6,0-3.6-0.4-5.3,0c-1.6,0.4-2.8,1.2-4.5,1.6c-3.6,0.8-8.5,0.4-10.9-2.4c-2,0.4-4,1.6-6.1,2c-6.9,2.4-14.6,5.3-21.9,3.2
			c0,5.7-0.8,11.3-0.4,17c0.4,6.1,1.6,12.1,2.4,18.2c0.8,9.7,2,19.8,4.9,29.1c1.2,4.9,3.2,10.1,6.5,14.2c6.9,8.1,18.2,9.7,27.5,13.8
			c2.4,1.2,5.3,2,7.7,3.6c3.6,2.4,7.3,5.7,11.7,6.5c4.9,0.8,10.1,1.2,15.4,0.8c3.2-0.4,6.1-0.4,9.3-1.6c3.2-1.2,5.7-3.2,8.5-5.3
			c2.4-1.6,4.9-2.4,7.7-3.6c9.3-3.2,20.6-6.1,27.5-13.4c6.1-6.5,7.7-16.6,9.3-25.5c1.2-7.7,2-15.4,2.8-23.1c0.4-3.2,1.2-6.1,1.2-9.3
			c0-1.2-0.4-2.4-0.4-3.6c0-2.8,0-5.3,0-8.1c0-5.3,0-10.9-1.6-16.2c-0.4-1.6-1.2-3.2-2-4.9c-0.8-1.2-2.4-1.2-3.2-1.6
			C49,400.8,47.4,399.2,46.2,398z"/>
		<path fill="#5F5244" d="M46.2,398L46.2,398L46.2,398z"/>
		<path fill="#7F6E5B" d="M45.4,398.4L45.4,398.4L45.4,398.4z"/>
		<path fill="#5F5244" d="M46.6,398.4L46.6,398.4L46.6,398.4z"/>
		<path fill="#9E8972" d="M45.4,398.8L45.4,398.8L45.4,398.8z"/>
		<path fill="#5F5244" d="M47,398.8L47,398.8L47,398.8z"/>
		<path fill="#BEA589" d="M45,398.8L45,398.8L45,398.8z"/>
		<path fill="#8E7B66" d="M47,398.8L47,398.8L47,398.8z"/>
		<path fill="#CEB294" d="M44.6,399.2L44.6,399.2L44.6,399.2z"/>
		<path fill="#9E8972" d="M47.4,399.2L47.4,399.2L47.4,399.2z"/>
		<path fill="#CEB294" d="M47.8,399.6L47.8,399.6L47.8,399.6z"/>
		<path fill="#5F5244" d="M43.8,399.6L43.8,399.6L43.8,399.6z"/>
		<path fill="#141414" d="M-84.1,402.1v1.2C-83.7,402.5-83.7,402.5-84.1,402.1z"/>
		<path fill="#141414" d="M-78.5,404.9c-0.4,0.4-0.4,0.4-0.8,0.4C-78.9,405.3-78.5,405.7-78.5,404.9z"/>
		<path fill="#A8C1B8" d="M-90.6,409.8c0,2.8-1.6,5.3-4.5,6.1c-1.2,0.4-2.4,0-3.6,0l1.2,13c4.9-1.6,10.5,2,13.4,6.1
			c0.8-1.6,0.4-3.6,0.4-5.3c0-3.2,0.4-6.5,0.4-9.7c0-1.6,0.8-3.6,0-4.9C-85.4,411.8-87.8,411.4-90.6,409.8z"/>
		<path d="M-75.2,422.3c6.1,0.4,13,1.2,19,3.2c4.9,1.2,9.3,3.2,14.2,4.5c2.4,0.4,4.9,0.4,7.3-0.4c0.8-0.4,2.4-0.4,2.4-1.6
			c0-1.2-1.6-1.6-2.4-2c-2.8-1.2-5.3-2.4-8.1-3.6c-4.5-2-8.5-3.6-13-5.3c-2-0.8-4-2-6.1-1.6c-2.4,0-4.9,2-6.9,2.8
			C-71.2,419.1-74.4,420.3-75.2,422.3z"/>
		<path d="M50.2,422.3c-0.8-2.4-4-3.2-6.1-4.5c-2-1.2-4.9-2.8-6.9-2.8c-2,0-4.5,0.8-6.1,1.6c-4.5,1.6-8.5,3.6-12.5,5.3l-8.5,3.6
			c-0.8,0.4-2.4,0.8-2.4,2c0,0.8,1.6,1.2,2.4,1.2c2.4,0.4,5.3,0.8,7.7,0.4C28.4,426.8,38.9,422.7,50.2,422.3z"/>
		<path fill="#FEDCB7" d="M-83.7,474.9c0-4-1.2-8.1-1.6-12.1c-0.8-6.9-1.6-14.2-2.4-21c-0.4-2.4-0.8-5.3-1.2-7.7c0-0.8,0-2-0.8-2.4
			c-1.2-0.8-4,0.8-5.3,1.2c-5.3,2.4-9.7,7.3-11.3,13c-3.2,10.1,1.2,22.7,10.9,27.5C-91.8,475.3-87.8,474.9-83.7,474.9z"/>
		<path fill="#FEDCB7" d="M59.2,474.9c3.6,0,7.3,0,10.9-1.6c10.1-4.5,14.6-16.6,11.7-27.1c-1.6-5.7-5.3-10.5-10.5-13.4
			c-1.2-0.8-4-2.4-5.7-1.6c-0.8,0.4-0.8,1.6-0.8,2.4c-0.4,2.4-0.8,5.3-1.2,7.7c-0.8,7.3-1.6,14.6-2.4,21.9
			C60.4,467.6,59.2,471.3,59.2,474.9z"/>
		<path d="M-55,441.3c-5.7,0.4-11.7,3.2-13.8,8.9c-0.8,2-1.6,6.5,0.8,7.7c1.2,0.8,3.2,0.4,4-0.8c0.4-0.8,0.4-2,0.4-2.8
			c0.4-1.2,0.8-2.8,2-3.6c2.8-2.8,7.7-2.4,10.9-1.6c2,0.4,4,2,4.9,4c0.8,2.4,0,6.5,4,6.1c1.6,0,2.4-1.6,2.4-3.2
			c0-2.4-0.4-4.5-1.6-6.5C-43.7,443.8-49.7,440.9-55,441.3z"/>
		<path d="M33.2,441.3c-5.7,0.4-11.7,3.2-13.8,8.9c-0.8,2-2,6.9,0.8,8.1c4.9,2,3.6-4.9,5.7-6.9c2-2.8,6.1-3.2,9.3-2.8
			c2.8,0.4,5.3,1.2,6.9,3.6c1.2,2.4,0,6.5,4,6.5c4.5,0,2.8-6.9,1.6-9.3C44.6,443.8,38.9,440.9,33.2,441.3z"/>
		<path fill="#B39B81" d="M18.7,451.4L18.7,451.4L18.7,451.4z"/>
		<path fill="#6F6050" d="M18.7,451.9L18.7,451.9L18.7,451.9z"/>
		<path fill="#9A866F" d="M18.7,453.1C18.7,453.1,18.7,453.5,18.7,453.1C18.7,453.5,18.7,453.1,18.7,453.1z"/>
		<path fill="#746453" d="M18.7,453.5v0.8C18.7,453.9,18.7,453.9,18.7,453.5z"/>
		<path fill="#493F34" d="M18.7,454.3v1.2C18.7,455.1,18.7,454.7,18.7,454.3z"/>
		<path fill="#6D5E4E" d="M18.7,455.5v0.8C18.7,455.9,18.7,455.9,18.7,455.5z"/>
		<path fill="#383028" d="M18.7,456.3L18.7,456.3L18.7,456.3z"/>
		<path fill="#AC957C" d="M18.7,456.7L18.7,456.7L18.7,456.7z"/>
		<path d="M-40.4,489.5c-2,0-2.8,2.8-1.2,4c2.4,2,6.1,2.8,8.9,3.6c12.5,4,27.5,4,40.5,0.8c2.8-0.8,6.1-1.6,8.9-2.8
			c1.2-0.4,2.4-0.8,3.2-2c1.2-1.6-0.4-4-2.4-3.6c-1.2,0.4-2.4,0.8-3.6,1.6c-2,0.8-4,1.6-6.1,2c-7.7,2-16.2,2.8-24.3,2.4
			c-5.3-0.4-10.9-1.6-15.8-3.2c-1.6-0.4-3.2-1.2-4.9-2C-38.4,489.9-39.6,489.1-40.4,489.5z"/>
		<path fill="#FEDCB7" d="M-35.2,520.3c1.2,1.6,2.4,4,4,5.3s4,2.4,6.1,3.2c5.7,2.4,12.5,2.8,18.2,0.8c2-0.8,4-2,5.7-3.2
			c2.4-1.6,4.9-3.2,6.5-5.7c-1.6,0.4-2.8,1.2-4.5,1.6c-6.5,1.6-13.4,2-20.2,1.2c-2.4-0.4-4.9-0.8-7.3-1.6c-1.6-0.4-2.8-1.6-4.5-2
			C-32.3,519.5-34,520.3-35.2,520.3z"/>
		<path fill="#9EB7DB" d="M-0.8,567.2c1.2-1.2,2-3.2,3.2-4.5c1.6-2.4,2.8-4.9,4.5-7.3c0.8-1.2,2.4-3.2,2.4-4.5c0-1.6-2-3.6-2.8-5.3
			c-0.4-0.8-1.2-1.6-0.8-2.4c0.4-0.8,1.2-1.6,2-2c1.6-1.2,4.5-2,5.7-4c0.8-1.2,0.8-3.6,1.2-4.9c0.4-3.6,0.8-6.9,1.6-10.5
			c-1.2,0-2,0-3.2,0.4c-4,1.6-6.1,6.5-7.7,10.1c-3.2,8.1-4.5,16.6-5.3,24.7C-0.4,560.3-0.8,564-0.8,567.2z"/>
		<path fill="#9EB7DB" d="M-46.1,523.1c0.8,3.2,1.2,6.5,1.6,9.7c0.4,1.6,0.4,3.2,0.8,4.9c0.4,0.8,1.2,1.2,2,1.6
			c1.2,0.8,2.8,1.6,4,2.8c0.8,0.4,1.6,0.8,1.6,1.6c0.4,0.8-0.4,1.6-0.8,2.4c-1.2,1.6-2,3.6-3.2,5.3c2,4,4.9,8.1,7.3,12.1
			c1.2,2,2.4,5.3,4.5,6.9c0-5.7-0.8-11.3-1.2-16.6c-0.8-6.9-2-14.2-4.9-20.6c-1.6-3.6-4-8.9-8.1-9.7
			C-43.3,522.3-44.9,522.7-46.1,523.1z"/>
		<path fill="#9EB7DB" d="M19.5,522.3c-0.4,0-0.4,0-0.8,0.4c-0.4,3.2-1.2,6.5-1.6,10.1c-0.4,1.6-0.4,4-1.2,5.7l0,0
			c-1.2,2-4.9,3.6-6.9,4.9c0.8,1.6,1.6,2.8,2.4,4.5c0.4,0.8,1.2,1.6,1.2,2.4c0,2-2.4,4.5-3.2,6.1c-2.4,4.5-5.3,8.5-8.1,13
			c-1.2,2-3.2,4-3.2,6.9h17.4c0.4,0,0.4-0.4,0.4-0.4c0-5.3-0.4-10.5-0.8-15.8c0-2-0.8-4.9,1.2-6.1c2-1.6,4,0.4,4.5,2.4
			c0.8,3.2,0.8,6.5,1.2,9.3c0.4,3.6,1.6,6.5,2,10.1c0,0.4,0.4,0.4,0.4,0.4H47c0.4,0,0.8-0.4,0.4-0.8c-0.8-4.5-3.2-8.9-4.9-12.5
			c-3.6-9.7-7.3-19-11.7-28.3c-1.2-2.4-2.4-5.7-4.5-7.7C24.7,524.7,21.9,523.1,19.5,522.3z"/>
		<path fill="#9EB7DB" d="M-76.9,576.5H-53c0.8-5.7,2-11.3,2.8-17c0.4-2,0-4.9,2.8-5.3c2-0.4,3.2,2,3.2,4
			c-0.4,6.1-0.4,12.5-1.2,18.2h17.4c-0.8-2-2.4-4-3.6-6.1l-7.3-11.7c-1.2-2-3.2-4.5-4-6.9c-0.4-1.6,1.2-3.6,2-5.3
			c0.4-0.8,1.2-1.6,0.8-2.4c-0.4-0.8-1.2-1.2-2-1.6c-1.6-0.8-3.6-2-4.5-3.2c-0.8-1.6-0.8-4-1.2-5.7c-0.4-3.2-0.8-6.5-1.6-9.7
			c-6.9,1.2-9.3,7.7-11.7,13.4c-4,9.3-8.1,18.2-11.3,27.5C-74,568.8-75.6,572.5-76.9,576.5z"/>
		<path fill="#FFFFFF" d="M-28.3,530.8c0.4,3.2,2,6.1,2.8,9.3h16.2h4.5c0.4,0,1.2,0,1.6-0.4c0.8-0.4,0.8-2,1.2-2.8
			c0.8-2.4,1.6-4.9,2.4-7.3c-2.4,0.8-4.9,2.4-7.3,3.2c-4.9,1.2-10.1,1.2-15,0C-24.2,532.4-26.3,531.2-28.3,530.8z"/>
		<path fill="#FFFFFF" d="M-25,543.7c0.4,1.6,0.8,3.6,0.8,5.3h19c0.4-1.6,0.8-3.6,0.8-5.3H-25z"/>
		<path fill="#FFFFFF" d="M-23.4,552.7c0,2,0.4,3.6,0.4,5.7h16.6c0-2,0.4-3.6,0.4-5.7H-23.4z"/>
		<path d="M16.2,576.5h7.7c-1.2-6.5-2.8-13-3.2-19.8c0-1.6-1.6-3.6-3.6-3.2c-2.4,0.8-2,3.6-2,5.7C15.4,565.2,16.2,570.9,16.2,576.5z
			"/>
		<path d="M-52.6,576.5h7.3c0-5.3,0.4-10.1,0.8-15.4c0-2,0.8-4.9-0.8-6.1c-1.6-1.2-3.6-0.4-4.5,1.2c-0.8,2.4-0.8,5.7-1.2,8.5
			C-51.4,568.4-52.6,572.5-52.6,576.5z"/>
		<path fill="#FFFFFF" d="M-22.6,562.4c0,2,0.4,3.6,0.4,5.7h15.4l0.4-5.7H-22.6z"/>
		<path fill="#FFFFFF" d="M-39.2,568c-1.6,0.8-0.4,3.6,1.2,3.2C-36,570.1-37.2,566.8-39.2,568z"/>
		<path fill="#FFFFFF" d="M8.6,568c-2,1.2,0,4,1.6,2.8C12.2,569.7,10.6,566.8,8.6,568z"/>
	</g>
</g>
</svg>
